<mxfile host="app.diagrams.net" agent="Mozilla/5.0 (Windows NT 10.0; Win64; x64) AppleWebKit/537.36 (KHTML, like Gecko) Chrome/132.0.0.0 Safari/537.36" version="26.0.7">
  <diagram id="Ht1M8jgEwFfnCIfOTk4-" name="Page-1">
    <mxGraphModel dx="1290" dy="522" grid="0" gridSize="7" guides="1" tooltips="1" connect="1" arrows="1" fold="1" page="1" pageScale="1" pageWidth="1169" pageHeight="827" background="#4C004C" math="0" shadow="0">
      <root>
        <mxCell id="0" />
        <mxCell id="1" parent="0" />
        <mxCell id="UEzPUAAOIrF-is8g5C7q-113" value="Lambda" style="outlineConnect=0;fontColor=#232F3E;gradientColor=#F78E04;gradientDirection=north;fillColor=#D05C17;strokeColor=#ffffff;dashed=0;verticalLabelPosition=bottom;verticalAlign=top;align=center;html=1;fontSize=12;fontStyle=0;aspect=fixed;shape=mxgraph.aws4.resourceIcon;resIcon=mxgraph.aws4.lambda;labelBackgroundColor=#ffffff;spacingTop=3;" parent="1" vertex="1">
          <mxGeometry x="435" y="211.5" width="52.5" height="52.5" as="geometry" />
        </mxCell>
        <mxCell id="UEzPUAAOIrF-is8g5C7q-114" value="Amazon API&lt;br&gt;Gateway&lt;br&gt;" style="outlineConnect=0;fontColor=#232F3E;gradientColor=#945DF2;gradientDirection=north;fillColor=#5A30B5;strokeColor=#ffffff;dashed=0;verticalLabelPosition=bottom;verticalAlign=top;align=center;html=1;fontSize=12;fontStyle=0;aspect=fixed;shape=mxgraph.aws4.resourceIcon;resIcon=mxgraph.aws4.api_gateway;labelBackgroundColor=#ffffff;" parent="1" vertex="1">
          <mxGeometry x="255" y="211.5" width="55" height="55" as="geometry" />
        </mxCell>
        <mxCell id="UEzPUAAOIrF-is8g5C7q-119" value="Amazon&lt;br&gt;DynamoDB&lt;br&gt;" style="outlineConnect=0;fontColor=#232F3E;gradientColor=#4D72F3;gradientDirection=north;fillColor=#3334B9;strokeColor=#ffffff;dashed=0;verticalLabelPosition=bottom;verticalAlign=top;align=center;html=1;fontSize=12;fontStyle=0;aspect=fixed;shape=mxgraph.aws4.resourceIcon;resIcon=mxgraph.aws4.dynamodb;labelBackgroundColor=#ffffff;spacingTop=5;" parent="1" vertex="1">
          <mxGeometry x="662" y="209.75" width="54.75" height="54.75" as="geometry" />
        </mxCell>
        <mxCell id="0az0PLpRTDVHXp2KyUd1-6" value="" style="image;aspect=fixed;html=1;points=[];align=center;fontSize=12;image=img/lib/azure2/identity/Users.svg;fillColor=light-dark(#FFFF66,var(--ge-dark-color, #121212));strokeColor=light-dark(#FFFF00,#FFFFFF);" vertex="1" parent="1">
          <mxGeometry x="31" y="193" width="64" height="70" as="geometry" />
        </mxCell>
        <mxCell id="0az0PLpRTDVHXp2KyUd1-8" value="" style="endArrow=open;endFill=1;endSize=12;html=1;rounded=0;fillColor=#CCCCCC;strokeColor=light-dark(#CCCCCC,#FFFFFF);shadow=1;" edge="1" parent="1">
          <mxGeometry width="160" relative="1" as="geometry">
            <mxPoint x="106" y="235" as="sourcePoint" />
            <mxPoint x="234" y="235" as="targetPoint" />
          </mxGeometry>
        </mxCell>
        <mxCell id="0az0PLpRTDVHXp2KyUd1-15" value="" style="endArrow=open;endFill=1;endSize=12;html=1;rounded=0;fillColor=#1E1E1E;strokeColor=light-dark(#EAEAEA,#FFFFFF);shadow=1;" edge="1" parent="1">
          <mxGeometry width="160" relative="1" as="geometry">
            <mxPoint x="314" y="236" as="sourcePoint" />
            <mxPoint x="432" y="238" as="targetPoint" />
          </mxGeometry>
        </mxCell>
        <mxCell id="0az0PLpRTDVHXp2KyUd1-19" value="" style="endArrow=open;endFill=1;endSize=12;html=1;rounded=0;fillColor=#CCCCCC;strokeColor=light-dark(#EAEAEA,#FFFFFF);shadow=1;" edge="1" parent="1">
          <mxGeometry width="160" relative="1" as="geometry">
            <mxPoint x="493" y="236.75" as="sourcePoint" />
            <mxPoint x="657" y="237" as="targetPoint" />
          </mxGeometry>
        </mxCell>
        <mxCell id="0az0PLpRTDVHXp2KyUd1-21" value="" style="sketch=0;points=[[0,0,0],[0.25,0,0],[0.5,0,0],[0.75,0,0],[1,0,0],[0,1,0],[0.25,1,0],[0.5,1,0],[0.75,1,0],[1,1,0],[0,0.25,0],[0,0.5,0],[0,0.75,0],[1,0.25,0],[1,0.5,0],[1,0.75,0]];outlineConnect=0;fontColor=#232F3E;fillColor=#C925D1;strokeColor=#ffffff;dashed=0;verticalLabelPosition=bottom;verticalAlign=top;align=center;html=1;fontSize=12;fontStyle=0;aspect=fixed;shape=mxgraph.aws4.resourceIcon;resIcon=mxgraph.aws4.dynamodb;" vertex="1" parent="1">
          <mxGeometry x="662" y="205.5" width="59" height="59" as="geometry" />
        </mxCell>
        <mxCell id="0az0PLpRTDVHXp2KyUd1-25" value="&lt;b style=&quot;&quot;&gt;&lt;font style=&quot;color: rgb(255, 255, 255); background-color: rgb(0, 0, 0);&quot;&gt;AWS Cloud&lt;/font&gt;&lt;/b&gt;" style="points=[[0,0],[0.25,0],[0.5,0],[0.75,0],[1,0],[1,0.25],[1,0.5],[1,0.75],[1,1],[0.75,1],[0.5,1],[0.25,1],[0,1],[0,0.75],[0,0.5],[0,0.25]];outlineConnect=0;gradientColor=none;html=1;whiteSpace=wrap;fontSize=12;fontStyle=0;container=1;pointerEvents=0;collapsible=0;recursiveResize=0;shape=mxgraph.aws4.group;grIcon=mxgraph.aws4.group_aws_cloud_alt;strokeColor=#FFFFFF;fillColor=none;verticalAlign=top;align=left;spacingLeft=30;fontColor=#232F3E;dashed=10;" vertex="1" parent="1">
          <mxGeometry x="166" y="131" width="643" height="232" as="geometry" />
        </mxCell>
      </root>
    </mxGraphModel>
  </diagram>
</mxfile>
